<svg width="170" height="50" viewBox="0 0 170 50" fill="none" xmlns="http://www.w3.org/2000/svg">
<rect width="170" height="50" rx="25" fill="#F16214"/>
<circle cx="145" cy="25" r="20" fill="white"/>
<path d="M145.667 25L141 20.3331L142.333 19L148.333 25L142.333 31L141 29.6669L145.667 25Z" fill="#F16214"/>
<path d="M25.592 24.712H31.208C31.24 24.84 31.2667 24.9947 31.288 25.176C31.3093 25.3573 31.32 25.5387 31.32 25.72C31.32 26.456 31.208 27.1493 30.984 27.8C30.76 28.4507 30.408 29.032 29.928 29.544C29.416 30.088 28.8027 30.5093 28.088 30.808C27.3733 31.1067 26.5573 31.256 25.64 31.256C24.808 31.256 24.024 31.1067 23.288 30.808C22.552 30.5093 21.912 30.0933 21.368 29.56C20.824 29.0267 20.392 28.3973 20.072 27.672C19.752 26.936 19.592 26.136 19.592 25.272C19.592 24.408 19.752 23.6133 20.072 22.888C20.392 22.152 20.824 21.5173 21.368 20.984C21.912 20.4507 22.552 20.0347 23.288 19.736C24.024 19.4373 24.808 19.288 25.64 19.288C26.568 19.288 27.3947 19.448 28.12 19.768C28.856 20.088 29.4853 20.5307 30.008 21.096L28.52 22.552C28.1467 22.1573 27.7307 21.8587 27.272 21.656C26.8133 21.4427 26.264 21.336 25.624 21.336C25.1013 21.336 24.6053 21.432 24.136 21.624C23.6667 21.8053 23.256 22.0667 22.904 22.408C22.552 22.7493 22.2693 23.1653 22.056 23.656C21.8533 24.136 21.752 24.6747 21.752 25.272C21.752 25.8693 21.8533 26.4133 22.056 26.904C22.2693 27.384 22.552 27.7947 22.904 28.136C23.2667 28.4773 23.6827 28.744 24.152 28.936C24.6213 29.1173 25.1227 29.208 25.656 29.208C26.264 29.208 26.776 29.1227 27.192 28.952C27.6187 28.7707 27.9813 28.5413 28.28 28.264C28.4933 28.072 28.6747 27.832 28.824 27.544C28.984 27.2453 29.1067 26.9147 29.192 26.552H25.592V24.712ZM40.195 29.112C39.8323 29.752 39.3417 30.2693 38.723 30.664C38.115 31.0587 37.3683 31.256 36.483 31.256C35.8857 31.256 35.331 31.1547 34.819 30.952C34.3177 30.7387 33.8803 30.4453 33.507 30.072C33.1337 29.6987 32.8403 29.2613 32.627 28.76C32.4243 28.248 32.323 27.688 32.323 27.08C32.323 26.5147 32.4243 25.9813 32.627 25.48C32.8297 24.968 33.1123 24.5253 33.475 24.152C33.8377 23.768 34.2643 23.464 34.755 23.24C35.2563 23.016 35.8057 22.904 36.403 22.904C37.0323 22.904 37.5923 23.0107 38.083 23.224C38.5737 23.4267 38.9843 23.7147 39.315 24.088C39.6457 24.4507 39.8963 24.8827 40.067 25.384C40.2377 25.8853 40.323 26.4293 40.323 27.016C40.323 27.0907 40.323 27.1547 40.323 27.208C40.3123 27.272 40.307 27.3307 40.307 27.384C40.2963 27.4373 40.291 27.496 40.291 27.56H34.387C34.4297 27.88 34.515 28.1573 34.643 28.392C34.7817 28.616 34.947 28.808 35.139 28.968C35.3417 29.1173 35.5603 29.2293 35.795 29.304C36.0297 29.368 36.2697 29.4 36.515 29.4C36.995 29.4 37.3897 29.2933 37.699 29.08C38.019 28.856 38.2697 28.5787 38.451 28.248L40.195 29.112ZM38.291 26.072C38.2803 25.9333 38.2323 25.7787 38.147 25.608C38.0723 25.4373 37.955 25.2773 37.795 25.128C37.6457 24.9787 37.4537 24.856 37.219 24.76C36.995 24.664 36.723 24.616 36.403 24.616C35.955 24.616 35.5603 24.744 35.219 25C34.8777 25.256 34.6377 25.6133 34.499 26.072H38.291ZM42.2913 24.952H40.9153V23.16H42.2913V20.76H44.3873V23.16H46.3073V24.952H44.3873V27.992C44.3873 28.1733 44.4033 28.344 44.4353 28.504C44.4779 28.6533 44.5526 28.7813 44.6593 28.888C44.8086 29.0587 45.0219 29.144 45.2993 29.144C45.4806 29.144 45.6246 29.128 45.7313 29.096C45.8379 29.0533 45.9393 29 46.0353 28.936L46.6273 30.776C46.3819 30.8933 46.1153 30.9787 45.8273 31.032C45.5499 31.096 45.2406 31.128 44.8993 31.128C44.5046 31.128 44.1473 31.0693 43.8273 30.952C43.5179 30.824 43.2566 30.6533 43.0433 30.44C42.5419 29.96 42.2913 29.2773 42.2913 28.392V24.952ZM54.6404 31.256C54.1497 31.256 53.6804 31.1867 53.2324 31.048C52.7844 30.9093 52.3737 30.7013 52.0004 30.424C51.627 30.1467 51.3017 29.8107 51.0244 29.416C50.747 29.0107 50.5284 28.5413 50.3684 28.008L52.4004 27.208C52.5497 27.784 52.811 28.264 53.1844 28.648C53.5577 29.0213 54.0484 29.208 54.6564 29.208C54.8804 29.208 55.0937 29.1813 55.2964 29.128C55.5097 29.064 55.6964 28.9787 55.8564 28.872C56.027 28.7547 56.1604 28.6107 56.2564 28.44C56.3524 28.2693 56.4004 28.072 56.4004 27.848C56.4004 27.6347 56.363 27.4427 56.2884 27.272C56.2137 27.1013 56.0857 26.9413 55.9044 26.792C55.7337 26.6427 55.5044 26.4987 55.2164 26.36C54.939 26.2213 54.5924 26.0773 54.1764 25.928L53.4724 25.672C53.163 25.5653 52.8484 25.4213 52.5284 25.24C52.219 25.0587 51.9364 24.84 51.6804 24.584C51.4244 24.328 51.211 24.0293 51.0404 23.688C50.8804 23.336 50.8004 22.9413 50.8004 22.504C50.8004 22.056 50.8857 21.64 51.0564 21.256C51.2377 20.8613 51.4884 20.52 51.8084 20.232C52.139 19.9333 52.5284 19.704 52.9764 19.544C53.435 19.3733 53.9417 19.288 54.4964 19.288C55.0724 19.288 55.5684 19.368 55.9844 19.528C56.411 19.6773 56.7684 19.8747 57.0564 20.12C57.355 20.3547 57.595 20.616 57.7764 20.904C57.9577 21.192 58.091 21.464 58.1764 21.72L56.2724 22.52C56.1657 22.2 55.9684 21.912 55.6804 21.656C55.403 21.4 55.019 21.272 54.5284 21.272C54.059 21.272 53.6697 21.384 53.3604 21.608C53.051 21.8213 52.8964 22.104 52.8964 22.456C52.8964 22.7973 53.0457 23.0907 53.3444 23.336C53.643 23.5707 54.1177 23.8 54.7684 24.024L55.4884 24.264C55.947 24.424 56.363 24.6107 56.7364 24.824C57.1204 25.0267 57.4457 25.272 57.7124 25.56C57.9897 25.848 58.1977 26.1787 58.3364 26.552C58.4857 26.9147 58.5604 27.336 58.5604 27.816C58.5604 28.4133 58.4377 28.9307 58.1924 29.368C57.9577 29.7947 57.6537 30.1467 57.2804 30.424C56.907 30.7013 56.4857 30.9093 56.0164 31.048C55.547 31.1867 55.0884 31.256 54.6404 31.256ZM60.5413 24.952H59.1653V23.16H60.5413V20.76H62.6373V23.16H64.5573V24.952H62.6373V27.992C62.6373 28.1733 62.6533 28.344 62.6853 28.504C62.7279 28.6533 62.8026 28.7813 62.9093 28.888C63.0586 29.0587 63.2719 29.144 63.5493 29.144C63.7306 29.144 63.8746 29.128 63.9813 29.096C64.0879 29.0533 64.1893 29 64.2853 28.936L64.8773 30.776C64.6319 30.8933 64.3653 30.9787 64.0773 31.032C63.7999 31.096 63.4906 31.128 63.1493 31.128C62.7546 31.128 62.3973 31.0693 62.0773 30.952C61.7679 30.824 61.5066 30.6533 61.2933 30.44C60.7919 29.96 60.5413 29.2773 60.5413 28.392V24.952ZM70.7749 30.168H70.6469C70.4015 30.4667 70.1029 30.7227 69.7509 30.936C69.4095 31.1493 68.9669 31.256 68.4229 31.256C68.0175 31.256 67.6335 31.1867 67.2709 31.048C66.9189 30.92 66.6095 30.7387 66.3429 30.504C66.0762 30.2693 65.8682 29.9867 65.7189 29.656C65.5695 29.3253 65.4949 28.9627 65.4949 28.568C65.4949 28.1627 65.5749 27.8 65.7349 27.48C65.8949 27.1493 66.1189 26.8667 66.4069 26.632C66.6949 26.3973 67.0309 26.2213 67.4149 26.104C67.8095 25.976 68.2362 25.912 68.6949 25.912C69.2069 25.912 69.6282 25.9547 69.9589 26.04C70.2895 26.1147 70.5615 26.1947 70.7749 26.28V26.04C70.7749 25.624 70.6095 25.2827 70.2789 25.016C69.9482 24.7387 69.5375 24.6 69.0469 24.6C68.3215 24.6 67.7082 24.904 67.2069 25.512L65.6869 24.472C66.5189 23.4267 67.6549 22.904 69.0949 22.904C70.3109 22.904 71.2389 23.192 71.8789 23.768C72.5189 24.3333 72.8389 25.176 72.8389 26.296V31H70.7749V30.168ZM70.7749 27.816C70.5295 27.6987 70.2735 27.608 70.0069 27.544C69.7509 27.4693 69.4682 27.432 69.1589 27.432C68.6575 27.432 68.2682 27.544 67.9909 27.768C67.7242 27.9813 67.5909 28.248 67.5909 28.568C67.5909 28.888 67.7189 29.144 67.9749 29.336C68.2415 29.528 68.5455 29.624 68.8869 29.624C69.1642 29.624 69.4202 29.576 69.6549 29.48C69.8895 29.3733 70.0869 29.24 70.2469 29.08C70.4175 28.9093 70.5455 28.7173 70.6309 28.504C70.7269 28.28 70.7749 28.0507 70.7749 27.816ZM76.4734 24.248H76.6014C76.8147 23.8533 77.124 23.5387 77.5294 23.304C77.9454 23.0587 78.404 22.936 78.9054 22.936C79.0867 22.936 79.2307 22.9413 79.3374 22.952C79.444 22.9627 79.5454 22.984 79.6414 23.016V25.096C79.524 25.0427 79.3907 25 79.2414 24.968C79.1027 24.936 78.932 24.92 78.7294 24.92C78.068 24.92 77.5454 25.1227 77.1614 25.528C76.788 25.9227 76.6014 26.4667 76.6014 27.16V31H74.5054V23.16H76.4734V24.248ZM81.9614 24.952H80.5854V23.16H81.9614V20.76H84.0574V23.16H85.9774V24.952H84.0574V27.992C84.0574 28.1733 84.0734 28.344 84.1054 28.504C84.148 28.6533 84.2227 28.7813 84.3294 28.888C84.4787 29.0587 84.692 29.144 84.9694 29.144C85.1507 29.144 85.2947 29.128 85.4014 29.096C85.508 29.0533 85.6094 29 85.7054 28.936L86.2974 30.776C86.052 30.8933 85.7854 30.9787 85.4974 31.032C85.22 31.096 84.9107 31.128 84.5694 31.128C84.1747 31.128 83.8174 31.0693 83.4974 30.952C83.188 30.824 82.9267 30.6533 82.7134 30.44C82.212 29.96 81.9614 29.2773 81.9614 28.392V24.952ZM94.8669 29.112C94.5042 29.752 94.0135 30.2693 93.3949 30.664C92.7869 31.0587 92.0402 31.256 91.1549 31.256C90.5575 31.256 90.0029 31.1547 89.4909 30.952C88.9895 30.7387 88.5522 30.4453 88.1789 30.072C87.8055 29.6987 87.5122 29.2613 87.2989 28.76C87.0962 28.248 86.9949 27.688 86.9949 27.08C86.9949 26.5147 87.0962 25.9813 87.2989 25.48C87.5015 24.968 87.7842 24.5253 88.1469 24.152C88.5095 23.768 88.9362 23.464 89.4269 23.24C89.9282 23.016 90.4775 22.904 91.0749 22.904C91.7042 22.904 92.2642 23.0107 92.7549 23.224C93.2455 23.4267 93.6562 23.7147 93.9869 24.088C94.3175 24.4507 94.5682 24.8827 94.7389 25.384C94.9095 25.8853 94.9949 26.4293 94.9949 27.016C94.9949 27.0907 94.9949 27.1547 94.9949 27.208C94.9842 27.272 94.9789 27.3307 94.9789 27.384C94.9682 27.4373 94.9629 27.496 94.9629 27.56H89.0589C89.1015 27.88 89.1869 28.1573 89.3149 28.392C89.4535 28.616 89.6189 28.808 89.8109 28.968C90.0135 29.1173 90.2322 29.2293 90.4669 29.304C90.7015 29.368 90.9415 29.4 91.1869 29.4C91.6669 29.4 92.0615 29.2933 92.3709 29.08C92.6909 28.856 92.9415 28.5787 93.1229 28.248L94.8669 29.112ZM92.9629 26.072C92.9522 25.9333 92.9042 25.7787 92.8189 25.608C92.7442 25.4373 92.6269 25.2773 92.4669 25.128C92.3175 24.9787 92.1255 24.856 91.8909 24.76C91.6669 24.664 91.3949 24.616 91.0749 24.616C90.6269 24.616 90.2322 24.744 89.8909 25C89.5495 25.256 89.3095 25.6133 89.1709 26.072H92.9629ZM102.252 30.056H102.124C101.932 30.3867 101.633 30.6693 101.228 30.904C100.822 31.1387 100.321 31.256 99.7236 31.256C99.2223 31.256 98.7423 31.1547 98.2836 30.952C97.8356 30.7387 97.4356 30.4507 97.0836 30.088C96.7423 29.7147 96.4703 29.272 96.2676 28.76C96.065 28.248 95.9636 27.688 95.9636 27.08C95.9636 26.472 96.065 25.912 96.2676 25.4C96.4703 24.888 96.7423 24.4507 97.0836 24.088C97.4356 23.7147 97.8356 23.4267 98.2836 23.224C98.7423 23.0107 99.2223 22.904 99.7236 22.904C100.321 22.904 100.822 23.0213 101.228 23.256C101.633 23.4907 101.932 23.7733 102.124 24.104H102.252L102.124 22.984V19.544H104.22V31H102.252V30.056ZM100.156 29.32C100.433 29.32 100.694 29.272 100.94 29.176C101.196 29.0693 101.42 28.92 101.612 28.728C101.804 28.536 101.958 28.3013 102.076 28.024C102.193 27.7467 102.252 27.432 102.252 27.08C102.252 26.728 102.193 26.4133 102.076 26.136C101.958 25.8587 101.804 25.624 101.612 25.432C101.42 25.24 101.196 25.096 100.94 25C100.694 24.8933 100.433 24.84 100.156 24.84C99.8783 24.84 99.6116 24.8933 99.3556 25C99.1103 25.1067 98.8916 25.256 98.6996 25.448C98.5076 25.64 98.353 25.8747 98.2356 26.152C98.1183 26.4293 98.0596 26.7387 98.0596 27.08C98.0596 27.4213 98.1183 27.7307 98.2356 28.008C98.353 28.2853 98.5076 28.52 98.6996 28.712C98.8916 28.904 99.1103 29.0533 99.3556 29.16C99.6116 29.2667 99.8783 29.32 100.156 29.32Z" fill="white"/>
</svg>
