<svg width="200" height="50" viewBox="0 0 200 50" fill="none" xmlns="http://www.w3.org/2000/svg">
<rect width="200" height="50" rx="25" fill="#F16214"/>
<circle cx="175" cy="25" r="20" fill="white"/>
<path d="M175.667 25L171 20.3331L172.333 19L178.333 25L172.333 31L171 29.6669L175.667 25Z" fill="#F16214"/>
<path d="M16.656 31.256C16.1653 31.256 15.696 31.1867 15.248 31.048C14.8 30.9093 14.3893 30.7013 14.016 30.424C13.6427 30.1467 13.3173 29.8107 13.04 29.416C12.7627 29.0107 12.544 28.5413 12.384 28.008L14.416 27.208C14.5653 27.784 14.8267 28.264 15.2 28.648C15.5733 29.0213 16.064 29.208 16.672 29.208C16.896 29.208 17.1093 29.1813 17.312 29.128C17.5253 29.064 17.712 28.9787 17.872 28.872C18.0427 28.7547 18.176 28.6107 18.272 28.44C18.368 28.2693 18.416 28.072 18.416 27.848C18.416 27.6347 18.3787 27.4427 18.304 27.272C18.2293 27.1013 18.1013 26.9413 17.92 26.792C17.7493 26.6427 17.52 26.4987 17.232 26.36C16.9547 26.2213 16.608 26.0773 16.192 25.928L15.488 25.672C15.1787 25.5653 14.864 25.4213 14.544 25.24C14.2347 25.0587 13.952 24.84 13.696 24.584C13.44 24.328 13.2267 24.0293 13.056 23.688C12.896 23.336 12.816 22.9413 12.816 22.504C12.816 22.056 12.9013 21.64 13.072 21.256C13.2533 20.8613 13.504 20.52 13.824 20.232C14.1547 19.9333 14.544 19.704 14.992 19.544C15.4507 19.3733 15.9573 19.288 16.512 19.288C17.088 19.288 17.584 19.368 18 19.528C18.4267 19.6773 18.784 19.8747 19.072 20.12C19.3707 20.3547 19.6107 20.616 19.792 20.904C19.9733 21.192 20.1067 21.464 20.192 21.72L18.288 22.52C18.1813 22.2 17.984 21.912 17.696 21.656C17.4187 21.4 17.0347 21.272 16.544 21.272C16.0747 21.272 15.6853 21.384 15.376 21.608C15.0667 21.8213 14.912 22.104 14.912 22.456C14.912 22.7973 15.0613 23.0907 15.36 23.336C15.6587 23.5707 16.1333 23.8 16.784 24.024L17.504 24.264C17.9627 24.424 18.3787 24.6107 18.752 24.824C19.136 25.0267 19.4613 25.272 19.728 25.56C20.0053 25.848 20.2133 26.1787 20.352 26.552C20.5013 26.9147 20.576 27.336 20.576 27.816C20.576 28.4133 20.4533 28.9307 20.208 29.368C19.9733 29.7947 19.6693 30.1467 19.296 30.424C18.9227 30.7013 18.5013 30.9093 18.032 31.048C17.5627 31.1867 17.104 31.256 16.656 31.256ZM29.5231 29.112C29.1605 29.752 28.6698 30.2693 28.0511 30.664C27.4431 31.0587 26.6965 31.256 25.8111 31.256C25.2138 31.256 24.6591 31.1547 24.1471 30.952C23.6458 30.7387 23.2085 30.4453 22.8351 30.072C22.4618 29.6987 22.1685 29.2613 21.9551 28.76C21.7525 28.248 21.6511 27.688 21.6511 27.08C21.6511 26.5147 21.7525 25.9813 21.9551 25.48C22.1578 24.968 22.4405 24.5253 22.8031 24.152C23.1658 23.768 23.5925 23.464 24.0831 23.24C24.5845 23.016 25.1338 22.904 25.7311 22.904C26.3605 22.904 26.9205 23.0107 27.4111 23.224C27.9018 23.4267 28.3125 23.7147 28.6431 24.088C28.9738 24.4507 29.2245 24.8827 29.3951 25.384C29.5658 25.8853 29.6511 26.4293 29.6511 27.016C29.6511 27.0907 29.6511 27.1547 29.6511 27.208C29.6405 27.272 29.6351 27.3307 29.6351 27.384C29.6245 27.4373 29.6191 27.496 29.6191 27.56H23.7151C23.7578 27.88 23.8431 28.1573 23.9711 28.392C24.1098 28.616 24.2751 28.808 24.4671 28.968C24.6698 29.1173 24.8885 29.2293 25.1231 29.304C25.3578 29.368 25.5978 29.4 25.8431 29.4C26.3231 29.4 26.7178 29.2933 27.0271 29.08C27.3471 28.856 27.5978 28.5787 27.7791 28.248L29.5231 29.112ZM27.6191 26.072C27.6085 25.9333 27.5605 25.7787 27.4751 25.608C27.4005 25.4373 27.2831 25.2773 27.1231 25.128C26.9738 24.9787 26.7818 24.856 26.5471 24.76C26.3231 24.664 26.0511 24.616 25.7311 24.616C25.2831 24.616 24.8885 24.744 24.5471 25C24.2058 25.256 23.9658 25.6133 23.8271 26.072H27.6191ZM38.4919 29.112C38.1292 29.752 37.6385 30.2693 37.0199 30.664C36.4119 31.0587 35.6652 31.256 34.7799 31.256C34.1825 31.256 33.6279 31.1547 33.1159 30.952C32.6145 30.7387 32.1772 30.4453 31.8039 30.072C31.4305 29.6987 31.1372 29.2613 30.9239 28.76C30.7212 28.248 30.6199 27.688 30.6199 27.08C30.6199 26.5147 30.7212 25.9813 30.9239 25.48C31.1265 24.968 31.4092 24.5253 31.7719 24.152C32.1345 23.768 32.5612 23.464 33.0519 23.24C33.5532 23.016 34.1025 22.904 34.6999 22.904C35.3292 22.904 35.8892 23.0107 36.3799 23.224C36.8705 23.4267 37.2812 23.7147 37.6119 24.088C37.9425 24.4507 38.1932 24.8827 38.3639 25.384C38.5345 25.8853 38.6199 26.4293 38.6199 27.016C38.6199 27.0907 38.6199 27.1547 38.6199 27.208C38.6092 27.272 38.6039 27.3307 38.6039 27.384C38.5932 27.4373 38.5879 27.496 38.5879 27.56H32.6839C32.7265 27.88 32.8119 28.1573 32.9399 28.392C33.0785 28.616 33.2439 28.808 33.4359 28.968C33.6385 29.1173 33.8572 29.2293 34.0919 29.304C34.3265 29.368 34.5665 29.4 34.8119 29.4C35.2919 29.4 35.6865 29.2933 35.9959 29.08C36.3159 28.856 36.5665 28.5787 36.7479 28.248L38.4919 29.112ZM36.5879 26.072C36.5772 25.9333 36.5292 25.7787 36.4439 25.608C36.3692 25.4373 36.2519 25.2773 36.0919 25.128C35.9425 24.9787 35.7505 24.856 35.5159 24.76C35.2919 24.664 35.0199 24.616 34.6999 24.616C34.2519 24.616 33.8572 24.744 33.5159 25C33.1745 25.256 32.9345 25.6133 32.7959 26.072H36.5879ZM43.7301 19.544H45.8581L49.3621 25.608H49.4901L52.9941 19.544H55.1381V31H52.9941V25.352L53.1221 23.432H52.9941L50.0821 28.568H48.7861L45.8581 23.432H45.7301L45.8581 25.352V31H43.7301V19.544ZM60.9049 22.904C61.5129 22.904 62.0675 23.0107 62.5689 23.224C63.0809 23.4267 63.5182 23.7147 63.8809 24.088C64.2542 24.4507 64.5422 24.888 64.7449 25.4C64.9582 25.912 65.0649 26.472 65.0649 27.08C65.0649 27.688 64.9582 28.248 64.7449 28.76C64.5422 29.272 64.2542 29.7147 63.8809 30.088C63.5182 30.4507 63.0809 30.7387 62.5689 30.952C62.0675 31.1547 61.5129 31.256 60.9049 31.256C60.2969 31.256 59.7369 31.1547 59.2249 30.952C58.7235 30.7387 58.2862 30.4507 57.9129 30.088C57.5502 29.7147 57.2622 29.272 57.0489 28.76C56.8462 28.248 56.7449 27.688 56.7449 27.08C56.7449 26.472 56.8462 25.912 57.0489 25.4C57.2622 24.888 57.5502 24.4507 57.9129 24.088C58.2862 23.7147 58.7235 23.4267 59.2249 23.224C59.7369 23.0107 60.2969 22.904 60.9049 22.904ZM60.9049 29.32C61.1715 29.32 61.4275 29.272 61.6729 29.176C61.9289 29.0693 62.1529 28.92 62.3449 28.728C62.5369 28.536 62.6862 28.3013 62.7929 28.024C62.9102 27.7467 62.9689 27.432 62.9689 27.08C62.9689 26.728 62.9102 26.4133 62.7929 26.136C62.6862 25.8587 62.5369 25.624 62.3449 25.432C62.1529 25.24 61.9289 25.096 61.6729 25C61.4275 24.8933 61.1715 24.84 60.9049 24.84C60.6275 24.84 60.3662 24.8933 60.1209 25C59.8755 25.096 59.6569 25.24 59.4649 25.432C59.2729 25.624 59.1182 25.8587 59.0009 26.136C58.8942 26.4133 58.8409 26.728 58.8409 27.08C58.8409 27.432 58.8942 27.7467 59.0009 28.024C59.1182 28.3013 59.2729 28.536 59.4649 28.728C59.6569 28.92 59.8755 29.0693 60.1209 29.176C60.3662 29.272 60.6275 29.32 60.9049 29.32ZM66.2554 23.16H68.2234V24.248H68.3514C68.4474 24.056 68.5754 23.88 68.7354 23.72C68.8954 23.56 69.0714 23.4213 69.2634 23.304C69.466 23.1867 69.6794 23.096 69.9034 23.032C70.138 22.968 70.3674 22.936 70.5914 22.936C70.8687 22.936 71.1034 22.9627 71.2954 23.016C71.498 23.0693 71.6687 23.1387 71.8074 23.224L71.2474 25.128C71.1194 25.064 70.9754 25.016 70.8154 24.984C70.666 24.9413 70.4794 24.92 70.2554 24.92C69.9674 24.92 69.706 24.9787 69.4714 25.096C69.2367 25.2027 69.034 25.3573 68.8634 25.56C68.7034 25.7627 68.5754 26.0027 68.4794 26.28C68.394 26.5467 68.3514 26.84 68.3514 27.16V31H66.2554V23.16ZM79.7106 29.112C79.348 29.752 78.8573 30.2693 78.2386 30.664C77.6306 31.0587 76.884 31.256 75.9986 31.256C75.4013 31.256 74.8466 31.1547 74.3346 30.952C73.8333 30.7387 73.396 30.4453 73.0226 30.072C72.6493 29.6987 72.356 29.2613 72.1426 28.76C71.94 28.248 71.8386 27.688 71.8386 27.08C71.8386 26.5147 71.94 25.9813 72.1426 25.48C72.3453 24.968 72.628 24.5253 72.9906 24.152C73.3533 23.768 73.78 23.464 74.2706 23.24C74.772 23.016 75.3213 22.904 75.9186 22.904C76.548 22.904 77.108 23.0107 77.5986 23.224C78.0893 23.4267 78.5 23.7147 78.8306 24.088C79.1613 24.4507 79.412 24.8827 79.5826 25.384C79.7533 25.8853 79.8386 26.4293 79.8386 27.016C79.8386 27.0907 79.8386 27.1547 79.8386 27.208C79.828 27.272 79.8226 27.3307 79.8226 27.384C79.812 27.4373 79.8066 27.496 79.8066 27.56H73.9026C73.9453 27.88 74.0306 28.1573 74.1586 28.392C74.2973 28.616 74.4626 28.808 74.6546 28.968C74.8573 29.1173 75.076 29.2293 75.3106 29.304C75.5453 29.368 75.7853 29.4 76.0306 29.4C76.5106 29.4 76.9053 29.2933 77.2146 29.08C77.5346 28.856 77.7853 28.5787 77.9666 28.248L79.7106 29.112ZM77.8066 26.072C77.796 25.9333 77.748 25.7787 77.6626 25.608C77.588 25.4373 77.4706 25.2773 77.3106 25.128C77.1613 24.9787 76.9693 24.856 76.7346 24.76C76.5106 24.664 76.2386 24.616 75.9186 24.616C75.4706 24.616 75.076 24.744 74.7346 25C74.3933 25.256 74.1533 25.6133 74.0146 26.072H77.8066ZM84.9489 31V19.544H88.9809C89.5249 19.544 90.0315 19.6347 90.5009 19.816C90.9809 19.9867 91.3969 20.232 91.7489 20.552C92.1009 20.872 92.3782 21.256 92.5809 21.704C92.7835 22.1413 92.8849 22.6267 92.8849 23.16C92.8849 23.704 92.7835 24.2 92.5809 24.648C92.3782 25.0853 92.1009 25.464 91.7489 25.784C91.3969 26.104 90.9809 26.3547 90.5009 26.536C90.0315 26.7067 89.5249 26.792 88.9809 26.792H87.1089V31H84.9489ZM89.0129 24.744C89.5782 24.744 90.0049 24.584 90.2929 24.264C90.5809 23.944 90.7249 23.576 90.7249 23.16C90.7249 22.9573 90.6875 22.76 90.6129 22.568C90.5489 22.376 90.4422 22.2107 90.2929 22.072C90.1542 21.9227 89.9782 21.8053 89.7649 21.72C89.5515 21.6347 89.3009 21.592 89.0129 21.592H87.1089V24.744H89.0129ZM94.1616 23.16H96.1296V24.248H96.2576C96.3536 24.056 96.4816 23.88 96.6416 23.72C96.8016 23.56 96.9776 23.4213 97.1696 23.304C97.3723 23.1867 97.5856 23.096 97.8096 23.032C98.0443 22.968 98.2736 22.936 98.4976 22.936C98.775 22.936 99.0096 22.9627 99.2016 23.016C99.4043 23.0693 99.575 23.1387 99.7136 23.224L99.1536 25.128C99.0256 25.064 98.8816 25.016 98.7216 24.984C98.5723 24.9413 98.3856 24.92 98.1616 24.92C97.8736 24.92 97.6123 24.9787 97.3776 25.096C97.143 25.2027 96.9403 25.3573 96.7696 25.56C96.6096 25.7627 96.4816 26.0027 96.3856 26.28C96.3003 26.5467 96.2576 26.84 96.2576 27.16V31H94.1616V23.16ZM103.905 22.904C104.513 22.904 105.068 23.0107 105.569 23.224C106.081 23.4267 106.518 23.7147 106.881 24.088C107.254 24.4507 107.542 24.888 107.745 25.4C107.958 25.912 108.065 26.472 108.065 27.08C108.065 27.688 107.958 28.248 107.745 28.76C107.542 29.272 107.254 29.7147 106.881 30.088C106.518 30.4507 106.081 30.7387 105.569 30.952C105.068 31.1547 104.513 31.256 103.905 31.256C103.297 31.256 102.737 31.1547 102.225 30.952C101.724 30.7387 101.286 30.4507 100.913 30.088C100.55 29.7147 100.262 29.272 100.049 28.76C99.8462 28.248 99.7449 27.688 99.7449 27.08C99.7449 26.472 99.8462 25.912 100.049 25.4C100.262 24.888 100.55 24.4507 100.913 24.088C101.286 23.7147 101.724 23.4267 102.225 23.224C102.737 23.0107 103.297 22.904 103.905 22.904ZM103.905 29.32C104.172 29.32 104.428 29.272 104.673 29.176C104.929 29.0693 105.153 28.92 105.345 28.728C105.537 28.536 105.686 28.3013 105.793 28.024C105.91 27.7467 105.969 27.432 105.969 27.08C105.969 26.728 105.91 26.4133 105.793 26.136C105.686 25.8587 105.537 25.624 105.345 25.432C105.153 25.24 104.929 25.096 104.673 25C104.428 24.8933 104.172 24.84 103.905 24.84C103.628 24.84 103.366 24.8933 103.121 25C102.876 25.096 102.657 25.24 102.465 25.432C102.273 25.624 102.118 25.8587 102.001 26.136C101.894 26.4133 101.841 26.728 101.841 27.08C101.841 27.432 101.894 27.7467 102.001 28.024C102.118 28.3013 102.273 28.536 102.465 28.728C102.657 28.92 102.876 29.0693 103.121 29.176C103.366 29.272 103.628 29.32 103.905 29.32ZM115.252 30.056H115.124C114.932 30.3867 114.633 30.6693 114.228 30.904C113.822 31.1387 113.321 31.256 112.724 31.256C112.222 31.256 111.742 31.1547 111.284 30.952C110.836 30.7387 110.436 30.4507 110.084 30.088C109.742 29.7147 109.47 29.272 109.268 28.76C109.065 28.248 108.964 27.688 108.964 27.08C108.964 26.472 109.065 25.912 109.268 25.4C109.47 24.888 109.742 24.4507 110.084 24.088C110.436 23.7147 110.836 23.4267 111.284 23.224C111.742 23.0107 112.222 22.904 112.724 22.904C113.321 22.904 113.822 23.0213 114.228 23.256C114.633 23.4907 114.932 23.7733 115.124 24.104H115.252L115.124 22.984V19.544H117.22V31H115.252V30.056ZM113.156 29.32C113.433 29.32 113.694 29.272 113.94 29.176C114.196 29.0693 114.42 28.92 114.612 28.728C114.804 28.536 114.958 28.3013 115.076 28.024C115.193 27.7467 115.252 27.432 115.252 27.08C115.252 26.728 115.193 26.4133 115.076 26.136C114.958 25.8587 114.804 25.624 114.612 25.432C114.42 25.24 114.196 25.096 113.94 25C113.694 24.8933 113.433 24.84 113.156 24.84C112.878 24.84 112.612 24.8933 112.356 25C112.11 25.1067 111.892 25.256 111.7 25.448C111.508 25.64 111.353 25.8747 111.236 26.152C111.118 26.4293 111.06 26.7387 111.06 27.08C111.06 27.4213 111.118 27.7307 111.236 28.008C111.353 28.2853 111.508 28.52 111.7 28.712C111.892 28.904 112.11 29.0533 112.356 29.16C112.612 29.2667 112.878 29.32 113.156 29.32ZM124.429 29.976H124.301C124.056 30.3707 123.725 30.6853 123.309 30.92C122.893 31.144 122.419 31.256 121.885 31.256C120.893 31.256 120.152 30.952 119.661 30.344C119.181 29.736 118.941 28.9253 118.941 27.912V23.16H121.037V27.656C121.037 28.2213 121.16 28.6427 121.405 28.92C121.661 29.1867 122.029 29.32 122.509 29.32C122.797 29.32 123.048 29.2613 123.261 29.144C123.485 29.016 123.672 28.8507 123.821 28.648C123.981 28.4347 124.099 28.1893 124.173 27.912C124.259 27.624 124.301 27.32 124.301 27V23.16H126.397V31H124.429V29.976ZM135.555 29C135.213 29.6613 134.733 30.2053 134.115 30.632C133.507 31.048 132.744 31.256 131.827 31.256C131.219 31.256 130.659 31.1547 130.147 30.952C129.645 30.7387 129.208 30.4453 128.835 30.072C128.472 29.6987 128.184 29.2613 127.971 28.76C127.768 28.248 127.667 27.688 127.667 27.08C127.667 26.472 127.768 25.912 127.971 25.4C128.184 24.888 128.472 24.4507 128.835 24.088C129.208 23.7147 129.645 23.4267 130.147 23.224C130.659 23.0107 131.219 22.904 131.827 22.904C132.733 22.904 133.496 23.112 134.115 23.528C134.733 23.944 135.187 24.4827 135.475 25.144L133.555 25.944C133.373 25.5813 133.139 25.3093 132.851 25.128C132.573 24.936 132.221 24.84 131.795 24.84C131.517 24.84 131.256 24.8933 131.011 25C130.765 25.1067 130.547 25.256 130.355 25.448C130.173 25.64 130.029 25.8747 129.923 26.152C129.816 26.4293 129.763 26.7387 129.763 27.08C129.763 27.4213 129.816 27.7307 129.923 28.008C130.029 28.2853 130.173 28.52 130.355 28.712C130.547 28.904 130.765 29.0533 131.011 29.16C131.256 29.2667 131.517 29.32 131.795 29.32C132.232 29.32 132.6 29.224 132.899 29.032C133.208 28.8293 133.453 28.5413 133.635 28.168L135.555 29ZM137.619 24.952H136.243V23.16H137.619V20.76H139.715V23.16H141.635V24.952H139.715V27.992C139.715 28.1733 139.731 28.344 139.763 28.504C139.806 28.6533 139.881 28.7813 139.987 28.888C140.137 29.0587 140.35 29.144 140.627 29.144C140.809 29.144 140.953 29.128 141.059 29.096C141.166 29.0533 141.267 29 141.363 28.936L141.955 30.776C141.71 30.8933 141.443 30.9787 141.155 31.032C140.878 31.096 140.569 31.128 140.227 31.128C139.833 31.128 139.475 31.0693 139.155 30.952C138.846 30.824 138.585 30.6533 138.371 30.44C137.87 29.96 137.619 29.2773 137.619 28.392V24.952Z" fill="white"/>
</svg>
